<svg xmlns="http://www.w3.org/2000/svg" viewBox="0 0 880 2458" width="880" height="2458" role="img" aria-label="Crow: an agent, not a chat box. Features, tools, operating points."><rect x="40" y="32" width="800" height="300" rx="14" fill="#0e1220" stroke="#1c2438"/><g transform="translate(70 62) scale(0.235)"><g fill="none" stroke-width="3" stroke-linejoin="round" stroke-linecap="round">
    <path stroke="#6789b2" d="M642 273 650 285"/>
    <path stroke="#6789b2" d="M699 404 693 409 651 426 615 496"/>
    <path stroke="#6789b2" d="M239 554 183 601 178 610"/>
    <path stroke="#6789b2" d="M650 689 573 799 567 802"/>
    <path stroke="#6789b2" d="M428 688 563 803"/>
    <path stroke="#90a7c2" d="M508 281 457 317"/>
    <path stroke="#90a7c2" d="M647 289 622 301"/>
    <path stroke="#90a7c2" d="M526 361 498 385"/>
    <path stroke="#90a7c2" d="M755 371 820 386 823 389"/>
    <path stroke="#90a7c2" d="M833 387 823 389"/>
    <path stroke="#90a7c2" d="M823 389 758 405 699 404"/>
    <path stroke="#90a7c2" d="M644 399 699 404"/>
    <path stroke="#90a7c2" d="M587 414 515 480"/>
    <path stroke="#90a7c2" d="M417 431 283 534 272 539"/>
    <path stroke="#90a7c2" d="M436 453 433 454 362 573 360 581"/>
    <path stroke="#90a7c2" d="M445 556 360 581"/>
    <path stroke="#90a7c2" d="M530 572 564 793 567 794"/>
    <path stroke="#90a7c2" d="M591 643 567 794"/>
    <path stroke="#90a7c2" d="M563 803 567 802"/>
    <path stroke="#90a7c2" d="M567 794 567 802"/>
    <path stroke="#acbece" d="M572 235 625 261 635 269"/>
    <path stroke="#acbece" d="M635 269 593 295"/>
    <path stroke="#acbece" d="M635 269 642 273"/>
    <path stroke="#acbece" d="M510 276 508 281"/>
    <path stroke="#acbece" d="M510 276 376 302 368 306"/>
    <path stroke="#acbece" d="M622 301 620 307 624 307"/>
    <path stroke="#acbece" d="M534 297 515 302 517 306 532 313"/>
    <path stroke="#acbece" d="M624 307 625 310 698 336 700 340"/>
    <path stroke="#acbece" d="M624 307 699 311"/>
    <path stroke="#acbece" d="M437 335 396 368"/>
    <path stroke="#acbece" d="M549 337 544 345 529 355"/>
    <path stroke="#acbece" d="M549 337 525 342"/>
    <path stroke="#acbece" d="M498 385 497 390"/>
    <path stroke="#acbece" d="M578 367 739 372"/>
    <path stroke="#acbece" d="M562 369 575 370"/>
    <path stroke="#acbece" d="M575 370 579 374 607 380 629 400 644 399"/>
    <path stroke="#acbece" d="M739 372 737 375 648 395 644 399"/>
    <path stroke="#acbece" d="M739 372 755 371"/>
    <path stroke="#acbece" d="M388 376 275 531 272 539"/>
    <path stroke="#acbece" d="M497 390 485 394"/>
    <path stroke="#acbece" d="M497 390 551 373 590 403 591 407"/>
    <path stroke="#acbece" d="M591 407 587 414"/>
    <path stroke="#acbece" d="M591 407 465 418 438 447"/>
    <path stroke="#acbece" d="M422 430 437 447"/>
    <path stroke="#acbece" d="M438 448 515 480"/>
    <path stroke="#acbece" d="M436 453 445 556"/>
    <path stroke="#acbece" d="M515 484 523 488 594 575 600 578"/>
    <path stroke="#acbece" d="M514 491 518 497 530 572"/>
    <path stroke="#acbece" d="M272 539 265 547 248 551"/>
    <path stroke="#acbece" d="M243 545 248 551"/>
    <path stroke="#acbece" d="M248 551 239 554"/>
    <path stroke="#acbece" d="M445 556 434 608 434 622"/>
    <path stroke="#acbece" d="M530 572 535 574 587 642 591 643"/>
    <path stroke="#acbece" d="M601 586 591 643"/>
    <path stroke="#b9c0c4" d="M474 218 567 231 572 235"/>
    <path stroke="#b9c0c4" d="M474 218 475 223 515 274"/>
    <path stroke="#b9c0c4" d="M474 218 467 218"/>
    <path stroke="#b9c0c4" d="M572 235 593 295"/>
    <path stroke="#b9c0c4" d="M515 274 510 276"/>
    <path stroke="#b9c0c4" d="M515 274 593 295"/>
    <path stroke="#b9c0c4" d="M457 317 455 322"/>
    <path stroke="#b9c0c4" d="M650 285 743 309 747 313"/>
    <path stroke="#b9c0c4" d="M647 289 697 307 699 311"/>
    <path stroke="#b9c0c4" d="M534 297 532 313"/>
    <path stroke="#b9c0c4" d="M534 297 547 306 552 314 533 316 532 313"/>
    <path stroke="#b9c0c4" d="M368 306 447 323"/>
    <path stroke="#b9c0c4" d="M699 311 720 317"/>
    <path stroke="#b9c0c4" d="M720 317 708 340"/>
    <path stroke="#b9c0c4" d="M455 322 447 323"/>
    <path stroke="#b9c0c4" d="M447 323 438 331"/>
    <path stroke="#b9c0c4" d="M458 323 500 317 525 342"/>
    <path stroke="#b9c0c4" d="M458 323 461 327 528 354"/>
    <path stroke="#b9c0c4" d="M438 331 437 335"/>
    <path stroke="#b9c0c4" d="M396 368 393 375"/>
    <path stroke="#b9c0c4" d="M438 331 433 331 322 390"/>
    <path stroke="#b9c0c4" d="M338 333 292 405"/>
    <path stroke="#b9c0c4" d="M525 342 528 354"/>
    <path stroke="#b9c0c4" d="M529 355 526 361"/>
    <path stroke="#b9c0c4" d="M759 359 828 382"/>
    <path stroke="#b9c0c4" d="M393 375 401 394 422 428"/>
    <path stroke="#b9c0c4" d="M393 375 388 376"/>
    <path stroke="#b9c0c4" d="M393 375 485 394"/>
    <path stroke="#b9c0c4" d="M828 382 833 387"/>
    <path stroke="#b9c0c4" d="M485 394 484 397 422 428"/>
    <path stroke="#b9c0c4" d="M422 430 417 431"/>
    <path stroke="#b9c0c4" d="M514 488 506 493 434 622"/>
    <path stroke="#b9c0c4" d="M514 491 501 573 438 628 433 629"/>
    <path stroke="#b9c0c4" d="M434 622 433 629"/>
    <path stroke="#7eb0f8" d="M467 218 452 228"/>
    <path stroke="#7eb0f8" d="M452 228 449 234 366 298 363 305"/>
    <path stroke="#7eb0f8" d="M452 228 447 228 371 268 317 334 316 339"/>
    <path stroke="#7eb0f8" d="M363 305 355 308 338 333"/>
    <path stroke="#7eb0f8" d="M747 313 725 317"/>
    <path stroke="#7eb0f8" d="M747 313 761 314 825 352 843 380 844 386"/>
    <path stroke="#7eb0f8" d="M725 317 795 347 830 378"/>
    <path stroke="#7eb0f8" d="M322 390 319 394"/>
    <path stroke="#7eb0f8" d="M338 333 316 339"/>
    <path stroke="#7eb0f8" d="M700 340 623 348 592 358 591 361"/>
    <path stroke="#7eb0f8" d="M700 340 708 340"/>
    <path stroke="#7eb0f8" d="M708 340 745 354 747 358"/>
    <path stroke="#7eb0f8" d="M747 358 595 363 591 361"/>
    <path stroke="#7eb0f8" d="M747 358 759 359"/>
    <path stroke="#7eb0f8" d="M591 361 580 363 578 367"/>
    <path stroke="#7eb0f8" d="M830 378 836 380 838 386"/>
    <path stroke="#7eb0f8" d="M844 386 851 394"/>
    <path stroke="#7eb0f8" d="M319 394 262 508 249 528"/>
    <path stroke="#7eb0f8" d="M319 394 292 405"/>
    <path stroke="#7eb0f8" d="M615 496 614 508"/>
    <path stroke="#7eb0f8" d="M292 405 285 413 248 523 249 528"/>
    <path stroke="#7eb0f8" d="M614 508 600 578"/>
    <path stroke="#7eb0f8" d="M614 508 647 674"/>
    <path stroke="#7eb0f8" d="M249 528 243 545"/>
    <path stroke="#7eb0f8" d="M243 545 239 554"/>
    <path stroke="#7eb0f8" d="M600 578 601 586"/>
    <path stroke="#7eb0f8" d="M358 583 178 610"/>
    <path stroke="#7eb0f8" d="M358 583 415 675 416 681"/>
    <path stroke="#7eb0f8" d="M601 586 643 672 647 674"/>
    <path stroke="#7eb0f8" d="M178 610 179 614 416 681"/>
    <path stroke="#7eb0f8" d="M647 674 650 689"/>
    <path stroke="#7eb0f8" d="M416 681 428 688"/>
  </g></g><text x="340" y="150" font-family="-apple-system,BlinkMacSystemFont,'Segoe UI','Noto Sans',Helvetica,Arial,sans-serif" font-size="64" font-weight="300" fill="#e8eef8" text-anchor="start" letter-spacing="22">CROW</text><text x="344" y="182" font-family="-apple-system,BlinkMacSystemFont,'Segoe UI','Noto Sans',Helvetica,Arial,sans-serif" font-size="13" font-weight="400" fill="#9fb0c9" text-anchor="start" letter-spacing="5">AI AGENT</text><text x="342" y="226" font-family="-apple-system,BlinkMacSystemFont,'Segoe UI','Noto Sans',Helvetica,Arial,sans-serif" font-size="20" fill="#cfdaea">An agent, not a chat box.<tspan fill="#7eb0f8">▍<animate attributeName="opacity" values="1;1;0;0" keyTimes="0;.5;.5;1" dur="1.1s" repeatCount="indefinite"/></tspan></text><rect x="342" y="258" width="68" height="26" rx="13" fill="none" stroke="#7eb0f8"/><text x="375.8" y="275.5" font-family="ui-monospace,SFMono-Regular,'SF Mono',Menlo,Consolas,'Liberation Mono',monospace" font-size="12.5" font-weight="400" fill="#7eb0f8" text-anchor="middle" letter-spacing="0">v2.7.0</text><rect x="419.6" y="258" width="45" height="26" rx="13" fill="none" stroke="#9fb0c9"/><text x="442.0" y="275.5" font-family="ui-monospace,SFMono-Regular,'SF Mono',Menlo,Consolas,'Liberation Mono',monospace" font-size="12.5" font-weight="400" fill="#9fb0c9" text-anchor="middle" letter-spacing="0">MIT</text><rect x="474.40000000000003" y="258" width="189" height="26" rx="13" fill="none" stroke="#39c6d8"/><text x="569.0" y="275.5" font-family="ui-monospace,SFMono-Regular,'SF Mono',Menlo,Consolas,'Liberation Mono',monospace" font-size="12.5" font-weight="400" fill="#39c6d8" text-anchor="middle" letter-spacing="0">Windows · Linux · CUDA</text><text x="440.0" y="364" font-family="-apple-system,BlinkMacSystemFont,'Segoe UI','Noto Sans',Helvetica,Arial,sans-serif" font-size="15.5" font-weight="400" fill="#cfdaea" text-anchor="middle" letter-spacing="0">A local model at 200k context with 28 tools and MCP, persistent memory, its own skills,</text><text x="440.0" y="388" font-family="-apple-system,BlinkMacSystemFont,'Segoe UI','Noto Sans',Helvetica,Arial,sans-serif" font-size="15.5" font-weight="400" fill="#cfdaea" text-anchor="middle" letter-spacing="0">a browser panel, eyes, and subagents it can send out while it keeps working.</text><text x="440.0" y="412" font-family="-apple-system,BlinkMacSystemFont,'Segoe UI','Noto Sans',Helvetica,Arial,sans-serif" font-size="15.5" font-weight="400" fill="#cfdaea" text-anchor="middle" letter-spacing="0">Runs on this machine, or on a provider you choose.</text><rect x="40" y="452" width="260" height="76" rx="10" fill="#131829" stroke="#131829"/><text x="58" y="488" font-family="ui-monospace,SFMono-Regular,'SF Mono',Menlo,Consolas,'Liberation Mono',monospace" font-size="26" font-weight="600" fill="#e8eef8" text-anchor="start" letter-spacing="0">200k</text><text x="58" y="511" font-family="-apple-system,BlinkMacSystemFont,'Segoe UI','Noto Sans',Helvetica,Arial,sans-serif" font-size="12.5" font-weight="400" fill="#9fb0c9" text-anchor="start" letter-spacing="0">context, one slot</text><rect x="310" y="452" width="260" height="76" rx="10" fill="#131829" stroke="#131829"/><text x="328" y="488" font-family="ui-monospace,SFMono-Regular,'SF Mono',Menlo,Consolas,'Liberation Mono',monospace" font-size="26" font-weight="600" fill="#e8eef8" text-anchor="start" letter-spacing="0">45.1</text><text x="328" y="511" font-family="-apple-system,BlinkMacSystemFont,'Segoe UI','Noto Sans',Helvetica,Arial,sans-serif" font-size="12.5" font-weight="400" fill="#9fb0c9" text-anchor="start" letter-spacing="0">tok/s decode</text><rect x="580" y="452" width="260" height="76" rx="10" fill="#131829" stroke="#131829"/><text x="598" y="488" font-family="ui-monospace,SFMono-Regular,'SF Mono',Menlo,Consolas,'Liberation Mono',monospace" font-size="26" font-weight="600" fill="#e8eef8" text-anchor="start" letter-spacing="0">771</text><text x="598" y="511" font-family="-apple-system,BlinkMacSystemFont,'Segoe UI','Noto Sans',Helvetica,Arial,sans-serif" font-size="12.5" font-weight="400" fill="#9fb0c9" text-anchor="start" letter-spacing="0">tok/s prefill, 16k prompt</text><rect x="40" y="538" width="260" height="76" rx="10" fill="#131829" stroke="#131829"/><text x="58" y="574" font-family="ui-monospace,SFMono-Regular,'SF Mono',Menlo,Consolas,'Liberation Mono',monospace" font-size="26" font-weight="600" fill="#e8eef8" text-anchor="start" letter-spacing="0">512 / 10</text><text x="58" y="597" font-family="-apple-system,BlinkMacSystemFont,'Segoe UI','Noto Sans',Helvetica,Arial,sans-serif" font-size="12.5" font-weight="400" fill="#9fb0c9" text-anchor="start" letter-spacing="0">MoE experts, active</text><rect x="310" y="538" width="260" height="76" rx="10" fill="#131829" stroke="#131829"/><text x="328" y="574" font-family="ui-monospace,SFMono-Regular,'SF Mono',Menlo,Consolas,'Liberation Mono',monospace" font-size="26" font-weight="600" fill="#e8eef8" text-anchor="start" letter-spacing="0">28</text><text x="328" y="597" font-family="-apple-system,BlinkMacSystemFont,'Segoe UI','Noto Sans',Helvetica,Arial,sans-serif" font-size="12.5" font-weight="400" fill="#9fb0c9" text-anchor="start" letter-spacing="0">tools built in</text><rect x="580" y="538" width="260" height="76" rx="10" fill="#131829" stroke="#131829"/><text x="598" y="574" font-family="ui-monospace,SFMono-Regular,'SF Mono',Menlo,Consolas,'Liberation Mono',monospace" font-size="26" font-weight="600" fill="#e8eef8" text-anchor="start" letter-spacing="0">16</text><text x="598" y="597" font-family="-apple-system,BlinkMacSystemFont,'Segoe UI','Noto Sans',Helvetica,Arial,sans-serif" font-size="12.5" font-weight="400" fill="#9fb0c9" text-anchor="start" letter-spacing="0">subagents at once</text><text x="440.0" y="642" font-family="-apple-system,BlinkMacSystemFont,'Segoe UI','Noto Sans',Helvetica,Arial,sans-serif" font-size="11" font-weight="400" fill="#6d7b95" text-anchor="middle" letter-spacing="0">Decode and prefill: crow-nest v0.3.0, CNQ4.5-M NVFP4, one RTX 5090, Windows, 2026-09-13/14. Conditions: docs/operating-points.md</text><rect x="40" y="686" width="4" height="22" rx="2" fill="#4ec98f"/><text x="56" y="703" font-family="-apple-system,BlinkMacSystemFont,'Segoe UI','Noto Sans',Helvetica,Arial,sans-serif" font-size="20" font-weight="600" fill="#e8eef8" text-anchor="start" letter-spacing="0">Features</text><line x1="150" y1="697" x2="840" y2="697" stroke="#1c2438"/><rect x="40" y="726" width="395" height="70" rx="10" fill="#0e1220" stroke="#1c2438"/><circle cx="62" cy="752" r="4" fill="#4ec98f"/><text x="76" y="757" font-family="-apple-system,BlinkMacSystemFont,'Segoe UI','Noto Sans',Helvetica,Arial,sans-serif" font-size="16" font-weight="600" fill="#e8eef8" text-anchor="start" letter-spacing="0">Memory</text><text x="76" y="779" font-family="-apple-system,BlinkMacSystemFont,'Segoe UI','Noto Sans',Helvetica,Arial,sans-serif" font-size="12.5" font-weight="400" fill="#9fb0c9" text-anchor="start" letter-spacing="0">two plain-text stores, per project and per person</text><rect x="445" y="726" width="395" height="70" rx="10" fill="#0e1220" stroke="#1c2438"/><circle cx="467" cy="752" r="4" fill="#e5c04b"/><text x="481" y="757" font-family="-apple-system,BlinkMacSystemFont,'Segoe UI','Noto Sans',Helvetica,Arial,sans-serif" font-size="16" font-weight="600" fill="#e8eef8" text-anchor="start" letter-spacing="0">Skills</text><text x="481" y="779" font-family="-apple-system,BlinkMacSystemFont,'Segoe UI','Noto Sans',Helvetica,Arial,sans-serif" font-size="12.5" font-weight="400" fill="#9fb0c9" text-anchor="start" letter-spacing="0">procedures the model keeps and rewrites</text><rect x="40" y="806" width="395" height="70" rx="10" fill="#0e1220" stroke="#1c2438"/><circle cx="62" cy="832" r="4" fill="#39c6d8"/><text x="76" y="837" font-family="-apple-system,BlinkMacSystemFont,'Segoe UI','Noto Sans',Helvetica,Arial,sans-serif" font-size="16" font-weight="600" fill="#e8eef8" text-anchor="start" letter-spacing="0">Goals</text><text x="76" y="859" font-family="-apple-system,BlinkMacSystemFont,'Segoe UI','Noto Sans',Helvetica,Arial,sans-serif" font-size="12.5" font-weight="400" fill="#9fb0c9" text-anchor="start" letter-spacing="0">a plan in the pinned head, it survives a restart</text><rect x="445" y="806" width="395" height="70" rx="10" fill="#0e1220" stroke="#1c2438"/><circle cx="467" cy="832" r="4" fill="#4ec98f"/><text x="481" y="837" font-family="-apple-system,BlinkMacSystemFont,'Segoe UI','Noto Sans',Helvetica,Arial,sans-serif" font-size="16" font-weight="600" fill="#e8eef8" text-anchor="start" letter-spacing="0">Subagents</text><text x="481" y="859" font-family="-apple-system,BlinkMacSystemFont,'Segoe UI','Noto Sans',Helvetica,Arial,sans-serif" font-size="12.5" font-weight="400" fill="#9fb0c9" text-anchor="start" letter-spacing="0">delegate, subtasks, collect: up to 16 at once</text><rect x="40" y="886" width="395" height="70" rx="10" fill="#0e1220" stroke="#1c2438"/><circle cx="62" cy="912" r="4" fill="#e5c04b"/><text x="76" y="917" font-family="-apple-system,BlinkMacSystemFont,'Segoe UI','Noto Sans',Helvetica,Arial,sans-serif" font-size="16" font-weight="600" fill="#e8eef8" text-anchor="start" letter-spacing="0">Browser panel</text><text x="76" y="939" font-family="-apple-system,BlinkMacSystemFont,'Segoe UI','Noto Sans',Helvetica,Arial,sans-serif" font-size="12.5" font-weight="400" fill="#9fb0c9" text-anchor="start" letter-spacing="0">tabs and an address bar, render_page for the model</text><rect x="445" y="886" width="395" height="70" rx="10" fill="#0e1220" stroke="#1c2438"/><circle cx="467" cy="912" r="4" fill="#39c6d8"/><text x="481" y="917" font-family="-apple-system,BlinkMacSystemFont,'Segoe UI','Noto Sans',Helvetica,Arial,sans-serif" font-size="16" font-weight="600" fill="#e8eef8" text-anchor="start" letter-spacing="0">Vision</text><text x="481" y="939" font-family="-apple-system,BlinkMacSystemFont,'Segoe UI','Noto Sans',Helvetica,Arial,sans-serif" font-size="12.5" font-weight="400" fill="#9fb0c9" text-anchor="start" letter-spacing="0">read_image: a screenshot, a render, a diagram</text><rect x="40" y="966" width="395" height="70" rx="10" fill="#0e1220" stroke="#1c2438"/><circle cx="62" cy="992" r="4" fill="#4ec98f"/><text x="76" y="997" font-family="-apple-system,BlinkMacSystemFont,'Segoe UI','Noto Sans',Helvetica,Arial,sans-serif" font-size="16" font-weight="600" fill="#e8eef8" text-anchor="start" letter-spacing="0">Session search</text><text x="76" y="1019" font-family="-apple-system,BlinkMacSystemFont,'Segoe UI','Noto Sans',Helvetica,Arial,sans-serif" font-size="12.5" font-weight="400" fill="#9fb0c9" text-anchor="start" letter-spacing="0">SQLite FTS5 over every archived conversation</text><rect x="445" y="966" width="395" height="70" rx="10" fill="#0e1220" stroke="#1c2438"/><circle cx="467" cy="992" r="4" fill="#e5c04b"/><text x="481" y="997" font-family="-apple-system,BlinkMacSystemFont,'Segoe UI','Noto Sans',Helvetica,Arial,sans-serif" font-size="16" font-weight="600" fill="#e8eef8" text-anchor="start" letter-spacing="0">MCP</text><text x="481" y="1019" font-family="-apple-system,BlinkMacSystemFont,'Segoe UI','Noto Sans',Helvetica,Arial,sans-serif" font-size="12.5" font-weight="400" fill="#9fb0c9" text-anchor="start" letter-spacing="0">stdio and Streamable HTTP, OAuth, per-tool classes</text><rect x="40" y="1046" width="395" height="70" rx="10" fill="#0e1220" stroke="#1c2438"/><circle cx="62" cy="1072" r="4" fill="#39c6d8"/><text x="76" y="1077" font-family="-apple-system,BlinkMacSystemFont,'Segoe UI','Noto Sans',Helvetica,Arial,sans-serif" font-size="16" font-weight="600" fill="#e8eef8" text-anchor="start" letter-spacing="0">Remote models</text><text x="76" y="1099" font-family="-apple-system,BlinkMacSystemFont,'Segoe UI','Noto Sans',Helvetica,Arial,sans-serif" font-size="12.5" font-weight="400" fill="#9fb0c9" text-anchor="start" letter-spacing="0">OpenRouter, Anthropic, OpenAI. Default: this machine</text><rect x="445" y="1046" width="395" height="70" rx="10" fill="#0e1220" stroke="#1c2438"/><circle cx="467" cy="1072" r="4" fill="#4ec98f"/><text x="481" y="1077" font-family="-apple-system,BlinkMacSystemFont,'Segoe UI','Noto Sans',Helvetica,Arial,sans-serif" font-size="16" font-weight="600" fill="#e8eef8" text-anchor="start" letter-spacing="0">Phone</text><text x="481" y="1099" font-family="-apple-system,BlinkMacSystemFont,'Segoe UI','Noto Sans',Helvetica,Arial,sans-serif" font-size="12.5" font-weight="400" fill="#9fb0c9" text-anchor="start" letter-spacing="0">the window on a paired phone, LAN or Tailscale</text><rect x="40" y="1126" width="395" height="70" rx="10" fill="#0e1220" stroke="#1c2438"/><circle cx="62" cy="1152" r="4" fill="#e5c04b"/><text x="76" y="1157" font-family="-apple-system,BlinkMacSystemFont,'Segoe UI','Noto Sans',Helvetica,Arial,sans-serif" font-size="16" font-weight="600" fill="#e8eef8" text-anchor="start" letter-spacing="0">Voice</text><text x="76" y="1179" font-family="-apple-system,BlinkMacSystemFont,'Segoe UI','Noto Sans',Helvetica,Arial,sans-serif" font-size="12.5" font-weight="400" fill="#9fb0c9" text-anchor="start" letter-spacing="0">dictation via faster-whisper, nothing written to disk</text><rect x="445" y="1126" width="395" height="70" rx="10" fill="#0e1220" stroke="#1c2438"/><circle cx="467" cy="1152" r="4" fill="#39c6d8"/><text x="481" y="1157" font-family="-apple-system,BlinkMacSystemFont,'Segoe UI','Noto Sans',Helvetica,Arial,sans-serif" font-size="16" font-weight="600" fill="#e8eef8" text-anchor="start" letter-spacing="0">Secrets</text><text x="481" y="1179" font-family="-apple-system,BlinkMacSystemFont,'Segoe UI','Noto Sans',Helvetica,Arial,sans-serif" font-size="12.5" font-weight="400" fill="#9fb0c9" text-anchor="start" letter-spacing="0">a file with an ACL, not an inherited env variable</text><rect x="40" y="1226" width="4" height="22" rx="2" fill="#e5c04b"/><text x="56" y="1243" font-family="-apple-system,BlinkMacSystemFont,'Segoe UI','Noto Sans',Helvetica,Arial,sans-serif" font-size="20" font-weight="600" fill="#e8eef8" text-anchor="start" letter-spacing="0">It asks before it writes, and before it runs.</text><line x1="490" y1="1237" x2="840" y2="1237" stroke="#1c2438"/><rect x="40" y="1266" width="800" height="160" rx="10" fill="#0e1220" stroke="#1c2438"/><rect x="64" y="1292" width="68" height="26" rx="13" fill="none" stroke="#e8eef8"/><text x="97.8" y="1309.5" font-family="ui-monospace,SFMono-Regular,'SF Mono',Menlo,Consolas,'Liberation Mono',monospace" font-size="12.5" font-weight="400" fill="#e8eef8" text-anchor="middle" letter-spacing="0">manual</text><text x="64" y="1340" font-family="-apple-system,BlinkMacSystemFont,'Segoe UI','Noto Sans',Helvetica,Arial,sans-serif" font-size="12.5" font-weight="400" fill="#9fb0c9" text-anchor="start" letter-spacing="0">asks before writing</text><text x="64" y="1358" font-family="-apple-system,BlinkMacSystemFont,'Segoe UI','Noto Sans',Helvetica,Arial,sans-serif" font-size="12.5" font-weight="400" fill="#9fb0c9" text-anchor="start" letter-spacing="0">and before executing</text><rect x="258" y="1292" width="90" height="26" rx="13" fill="none" stroke="#4ec98f"/><text x="303.2" y="1309.5" font-family="ui-monospace,SFMono-Regular,'SF Mono',Menlo,Consolas,'Liberation Mono',monospace" font-size="12.5" font-weight="400" fill="#4ec98f" text-anchor="middle" letter-spacing="0">allowedit</text><text x="258" y="1340" font-family="-apple-system,BlinkMacSystemFont,'Segoe UI','Noto Sans',Helvetica,Arial,sans-serif" font-size="12.5" font-weight="400" fill="#9fb0c9" text-anchor="start" letter-spacing="0">asks before executing</text><rect x="452" y="1292" width="52" height="26" rx="13" fill="none" stroke="#e5c04b"/><text x="478.2" y="1309.5" font-family="ui-monospace,SFMono-Regular,'SF Mono',Menlo,Consolas,'Liberation Mono',monospace" font-size="12.5" font-weight="400" fill="#e5c04b" text-anchor="middle" letter-spacing="0">auto</text><text x="452" y="1340" font-family="-apple-system,BlinkMacSystemFont,'Segoe UI','Noto Sans',Helvetica,Arial,sans-serif" font-size="12.5" font-weight="400" fill="#9fb0c9" text-anchor="start" letter-spacing="0">asks nothing</text><rect x="646" y="1292" width="52" height="26" rx="13" fill="none" stroke="#f0655a"/><text x="672.2" y="1309.5" font-family="ui-monospace,SFMono-Regular,'SF Mono',Menlo,Consolas,'Liberation Mono',monospace" font-size="12.5" font-weight="400" fill="#f0655a" text-anchor="middle" letter-spacing="0">yolo</text><text x="646" y="1340" font-family="-apple-system,BlinkMacSystemFont,'Segoe UI','Noto Sans',Helvetica,Arial,sans-serif" font-size="12.5" font-weight="400" fill="#9fb0c9" text-anchor="start" letter-spacing="0">asks for nothing,</text><text x="646" y="1358" font-family="-apple-system,BlinkMacSystemFont,'Segoe UI','Noto Sans',Helvetica,Arial,sans-serif" font-size="12.5" font-weight="400" fill="#9fb0c9" text-anchor="start" letter-spacing="0">and means it</text><text x="64" y="1394" font-family="-apple-system,BlinkMacSystemFont,'Segoe UI','Noto Sans',Helvetica,Arial,sans-serif" font-size="13" font-weight="400" fill="#cfdaea" text-anchor="start" letter-spacing="0">git_push asks at every level. A path outside the working directory asks first.</text><rect x="40" y="1466" width="4" height="22" rx="2" fill="#39c6d8"/><text x="56" y="1483" font-family="-apple-system,BlinkMacSystemFont,'Segoe UI','Noto Sans',Helvetica,Arial,sans-serif" font-size="20" font-weight="600" fill="#e8eef8" text-anchor="start" letter-spacing="0">Tools</text><text x="122.0" y="1482" font-family="-apple-system,BlinkMacSystemFont,'Segoe UI','Noto Sans',Helvetica,Arial,sans-serif" font-size="12.5" font-weight="400" fill="#6d7b95" text-anchor="start" letter-spacing="0">28 built in, every MCP tool joins the same list</text><line x1="420" y1="1477" x2="840" y2="1477" stroke="#1c2438"/><rect x="40" y="1506" width="800" height="364" rx="10" fill="#0e1220" stroke="#1c2438"/><text x="64" y="1536" font-family="-apple-system,BlinkMacSystemFont,'Segoe UI','Noto Sans',Helvetica,Arial,sans-serif" font-size="13.5" font-weight="600" fill="#e8eef8" text-anchor="start" letter-spacing="0">Files</text><text x="180" y="1536" font-family="ui-monospace,SFMono-Regular,'SF Mono',Menlo,Consolas,'Liberation Mono',monospace" font-size="13" font-weight="400" fill="#39c6d8" text-anchor="start" letter-spacing="0">read_file · write_file · append_file · edit_file</text><text x="64" y="1570" font-family="-apple-system,BlinkMacSystemFont,'Segoe UI','Noto Sans',Helvetica,Arial,sans-serif" font-size="13.5" font-weight="600" fill="#e8eef8" text-anchor="start" letter-spacing="0"></text><text x="180" y="1570" font-family="ui-monospace,SFMono-Regular,'SF Mono',Menlo,Consolas,'Liberation Mono',monospace" font-size="13" font-weight="400" fill="#39c6d8" text-anchor="start" letter-spacing="0">list_dir · find_files · search_text</text><line x1="60" y1="1582" x2="820" y2="1582" stroke="#1c2438" stroke-dasharray="2 4"/><text x="64" y="1604" font-family="-apple-system,BlinkMacSystemFont,'Segoe UI','Noto Sans',Helvetica,Arial,sans-serif" font-size="13.5" font-weight="600" fill="#e8eef8" text-anchor="start" letter-spacing="0">Shell</text><text x="180" y="1604" font-family="ui-monospace,SFMono-Regular,'SF Mono',Menlo,Consolas,'Liberation Mono',monospace" font-size="13" font-weight="400" fill="#39c6d8" text-anchor="start" letter-spacing="0">run_command · build_bundle</text><line x1="60" y1="1616" x2="820" y2="1616" stroke="#1c2438" stroke-dasharray="2 4"/><text x="64" y="1638" font-family="-apple-system,BlinkMacSystemFont,'Segoe UI','Noto Sans',Helvetica,Arial,sans-serif" font-size="13.5" font-weight="600" fill="#e8eef8" text-anchor="start" letter-spacing="0">Git</text><text x="180" y="1638" font-family="ui-monospace,SFMono-Regular,'SF Mono',Menlo,Consolas,'Liberation Mono',monospace" font-size="13" font-weight="400" fill="#39c6d8" text-anchor="start" letter-spacing="0">git_status · git_diff · git_log · git_commit · git_push · github_connect</text><line x1="60" y1="1650" x2="820" y2="1650" stroke="#1c2438" stroke-dasharray="2 4"/><text x="64" y="1672" font-family="-apple-system,BlinkMacSystemFont,'Segoe UI','Noto Sans',Helvetica,Arial,sans-serif" font-size="13.5" font-weight="600" fill="#e8eef8" text-anchor="start" letter-spacing="0">Web</text><text x="180" y="1672" font-family="ui-monospace,SFMono-Regular,'SF Mono',Menlo,Consolas,'Liberation Mono',monospace" font-size="13" font-weight="400" fill="#39c6d8" text-anchor="start" letter-spacing="0">web_search · fetch_url</text><line x1="60" y1="1684" x2="820" y2="1684" stroke="#1c2438" stroke-dasharray="2 4"/><text x="64" y="1706" font-family="-apple-system,BlinkMacSystemFont,'Segoe UI','Noto Sans',Helvetica,Arial,sans-serif" font-size="13.5" font-weight="600" fill="#e8eef8" text-anchor="start" letter-spacing="0">Browser</text><text x="180" y="1706" font-family="ui-monospace,SFMono-Regular,'SF Mono',Menlo,Consolas,'Liberation Mono',monospace" font-size="13" font-weight="400" fill="#39c6d8" text-anchor="start" letter-spacing="0">render_page</text><line x1="60" y1="1718" x2="820" y2="1718" stroke="#1c2438" stroke-dasharray="2 4"/><text x="64" y="1740" font-family="-apple-system,BlinkMacSystemFont,'Segoe UI','Noto Sans',Helvetica,Arial,sans-serif" font-size="13.5" font-weight="600" fill="#e8eef8" text-anchor="start" letter-spacing="0">Vision</text><text x="180" y="1740" font-family="ui-monospace,SFMono-Regular,'SF Mono',Menlo,Consolas,'Liberation Mono',monospace" font-size="13" font-weight="400" fill="#39c6d8" text-anchor="start" letter-spacing="0">read_image · judge</text><line x1="60" y1="1752" x2="820" y2="1752" stroke="#1c2438" stroke-dasharray="2 4"/><text x="64" y="1774" font-family="-apple-system,BlinkMacSystemFont,'Segoe UI','Noto Sans',Helvetica,Arial,sans-serif" font-size="13.5" font-weight="600" fill="#e8eef8" text-anchor="start" letter-spacing="0">Memory</text><text x="180" y="1774" font-family="ui-monospace,SFMono-Regular,'SF Mono',Menlo,Consolas,'Liberation Mono',monospace" font-size="13" font-weight="400" fill="#39c6d8" text-anchor="start" letter-spacing="0">memory · skill · session_search</text><line x1="60" y1="1786" x2="820" y2="1786" stroke="#1c2438" stroke-dasharray="2 4"/><text x="64" y="1808" font-family="-apple-system,BlinkMacSystemFont,'Segoe UI','Noto Sans',Helvetica,Arial,sans-serif" font-size="13.5" font-weight="600" fill="#e8eef8" text-anchor="start" letter-spacing="0">Goals</text><text x="180" y="1808" font-family="ui-monospace,SFMono-Regular,'SF Mono',Menlo,Consolas,'Liberation Mono',monospace" font-size="13" font-weight="400" fill="#39c6d8" text-anchor="start" letter-spacing="0">goal_set · goal_step</text><line x1="60" y1="1820" x2="820" y2="1820" stroke="#1c2438" stroke-dasharray="2 4"/><text x="64" y="1842" font-family="-apple-system,BlinkMacSystemFont,'Segoe UI','Noto Sans',Helvetica,Arial,sans-serif" font-size="13.5" font-weight="600" fill="#e8eef8" text-anchor="start" letter-spacing="0">Subagents</text><text x="180" y="1842" font-family="ui-monospace,SFMono-Regular,'SF Mono',Menlo,Consolas,'Liberation Mono',monospace" font-size="13" font-weight="400" fill="#39c6d8" text-anchor="start" letter-spacing="0">delegate · subtasks · collect</text><rect x="40" y="1910" width="4" height="22" rx="2" fill="#7eb0f8"/><text x="56" y="1927" font-family="-apple-system,BlinkMacSystemFont,'Segoe UI','Noto Sans',Helvetica,Arial,sans-serif" font-size="20" font-weight="600" fill="#e8eef8" text-anchor="start" letter-spacing="0">Operating points</text><line x1="223" y1="1921" x2="840" y2="1921" stroke="#1c2438"/><rect x="40" y="1950" width="800" height="304" rx="10" fill="#0e1220" stroke="#1c2438"/><text x="64" y="1976" font-family="-apple-system,BlinkMacSystemFont,'Segoe UI','Noto Sans',Helvetica,Arial,sans-serif" font-size="11.5" font-weight="400" fill="#6d7b95" text-anchor="start" letter-spacing="1">line</text><text x="250" y="1976" font-family="-apple-system,BlinkMacSystemFont,'Segoe UI','Noto Sans',Helvetica,Arial,sans-serif" font-size="11.5" font-weight="400" fill="#6d7b95" text-anchor="start" letter-spacing="1">model</text><text x="590" y="1976" font-family="-apple-system,BlinkMacSystemFont,'Segoe UI','Noto Sans',Helvetica,Arial,sans-serif" font-size="11.5" font-weight="400" fill="#6d7b95" text-anchor="start" letter-spacing="1">decode tok/s</text><text x="720" y="1976" font-family="-apple-system,BlinkMacSystemFont,'Segoe UI','Noto Sans',Helvetica,Arial,sans-serif" font-size="11.5" font-weight="400" fill="#6d7b95" text-anchor="start" letter-spacing="1">engine</text><line x1="60" y1="1990" x2="820" y2="1990" stroke="#1c2438"/><text x="64" y="2018" font-family="-apple-system,BlinkMacSystemFont,'Segoe UI','Noto Sans',Helvetica,Arial,sans-serif" font-size="14" font-weight="600" fill="#e8eef8" text-anchor="start" letter-spacing="0">Default, Windows</text><text x="250" y="2018" font-family="ui-monospace,SFMono-Regular,'SF Mono',Menlo,Consolas,'Liberation Mono',monospace" font-size="13" font-weight="400" fill="#cfdaea" text-anchor="start" letter-spacing="0">CNQ4.5-M NVFP4 container</text><text x="590" y="2018" font-family="ui-monospace,SFMono-Regular,'SF Mono',Menlo,Consolas,'Liberation Mono',monospace" font-size="15" font-weight="600" fill="#7eb0f8" text-anchor="start" letter-spacing="0">45.1</text><text x="720" y="2018" font-family="-apple-system,BlinkMacSystemFont,'Segoe UI','Noto Sans',Helvetica,Arial,sans-serif" font-size="13" font-weight="400" fill="#9fb0c9" text-anchor="start" letter-spacing="0">crow-nest</text><line x1="60" y1="2034" x2="820" y2="2034" stroke="#1c2438"/><text x="64" y="2062" font-family="-apple-system,BlinkMacSystemFont,'Segoe UI','Noto Sans',Helvetica,Arial,sans-serif" font-size="14" font-weight="600" fill="#e8eef8" text-anchor="start" letter-spacing="0">Default, Linux</text><text x="250" y="2062" font-family="ui-monospace,SFMono-Regular,'SF Mono',Menlo,Consolas,'Liberation Mono',monospace" font-size="13" font-weight="400" fill="#cfdaea" text-anchor="start" letter-spacing="0">CNQ4.5-M NVFP4 container</text><text x="590" y="2062" font-family="ui-monospace,SFMono-Regular,'SF Mono',Menlo,Consolas,'Liberation Mono',monospace" font-size="15" font-weight="600" fill="#7eb0f8" text-anchor="start" letter-spacing="0">36.8*</text><text x="720" y="2062" font-family="-apple-system,BlinkMacSystemFont,'Segoe UI','Noto Sans',Helvetica,Arial,sans-serif" font-size="13" font-weight="400" fill="#9fb0c9" text-anchor="start" letter-spacing="0">crow-nest</text><line x1="60" y1="2078" x2="820" y2="2078" stroke="#1c2438"/><text x="64" y="2106" font-family="-apple-system,BlinkMacSystemFont,'Segoe UI','Noto Sans',Helvetica,Arial,sans-serif" font-size="14" font-weight="400" fill="#e8eef8" text-anchor="start" letter-spacing="0">Second, Windows</text><text x="250" y="2106" font-family="ui-monospace,SFMono-Regular,'SF Mono',Menlo,Consolas,'Liberation Mono',monospace" font-size="13" font-weight="400" fill="#cfdaea" text-anchor="start" letter-spacing="0">Qwen3.8-Flash-Next UD-Q2_K_XL</text><text x="590" y="2106" font-family="ui-monospace,SFMono-Regular,'SF Mono',Menlo,Consolas,'Liberation Mono',monospace" font-size="15" font-weight="600" fill="#cfdaea" text-anchor="start" letter-spacing="0">41.76</text><text x="720" y="2106" font-family="-apple-system,BlinkMacSystemFont,'Segoe UI','Noto Sans',Helvetica,Arial,sans-serif" font-size="13" font-weight="400" fill="#9fb0c9" text-anchor="start" letter-spacing="0">llama.cpp</text><line x1="60" y1="2122" x2="820" y2="2122" stroke="#1c2438"/><text x="64" y="2150" font-family="-apple-system,BlinkMacSystemFont,'Segoe UI','Noto Sans',Helvetica,Arial,sans-serif" font-size="14" font-weight="400" fill="#e8eef8" text-anchor="start" letter-spacing="0">Second, Linux</text><text x="250" y="2150" font-family="ui-monospace,SFMono-Regular,'SF Mono',Menlo,Consolas,'Liberation Mono',monospace" font-size="13" font-weight="400" fill="#cfdaea" text-anchor="start" letter-spacing="0">Qwen3.8-Flash-Next UD-Q2_K_XL</text><text x="590" y="2150" font-family="ui-monospace,SFMono-Regular,'SF Mono',Menlo,Consolas,'Liberation Mono',monospace" font-size="15" font-weight="600" fill="#cfdaea" text-anchor="start" letter-spacing="0">41.8</text><text x="720" y="2150" font-family="-apple-system,BlinkMacSystemFont,'Segoe UI','Noto Sans',Helvetica,Arial,sans-serif" font-size="13" font-weight="400" fill="#9fb0c9" text-anchor="start" letter-spacing="0">llama.cpp</text><line x1="60" y1="2166" x2="820" y2="2166" stroke="#1c2438"/><text x="64" y="2194" font-family="-apple-system,BlinkMacSystemFont,'Segoe UI','Noto Sans',Helvetica,Arial,sans-serif" font-size="14" font-weight="400" fill="#e8eef8" text-anchor="start" letter-spacing="0">Third</text><text x="250" y="2194" font-family="ui-monospace,SFMono-Regular,'SF Mono',Menlo,Consolas,'Liberation Mono',monospace" font-size="13" font-weight="400" fill="#cfdaea" text-anchor="start" letter-spacing="0">Qwen3.8-27B UD-Q4_K_XL</text><text x="590" y="2194" font-family="ui-monospace,SFMono-Regular,'SF Mono',Menlo,Consolas,'Liberation Mono',monospace" font-size="15" font-weight="600" fill="#cfdaea" text-anchor="start" letter-spacing="0">123.05</text><text x="720" y="2194" font-family="-apple-system,BlinkMacSystemFont,'Segoe UI','Noto Sans',Helvetica,Arial,sans-serif" font-size="13" font-weight="400" fill="#9fb0c9" text-anchor="start" letter-spacing="0">llama.cpp</text><text x="64" y="2236" font-family="-apple-system,BlinkMacSystemFont,'Segoe UI','Noto Sans',Helvetica,Arial,sans-serif" font-size="11.5" font-weight="400" fill="#6d7b95" text-anchor="start" letter-spacing="0">* at 16k context. crow-nest: Windows 2026-09-13/14, Linux 2026-09-17. llama.cpp: Windows 2026-09-01 (#182), Linux 2026-09-16.</text><rect x="40" y="2280" width="4" height="22" rx="2" fill="#4ec98f"/><text x="56" y="2297" font-family="-apple-system,BlinkMacSystemFont,'Segoe UI','Noto Sans',Helvetica,Arial,sans-serif" font-size="20" font-weight="600" fill="#e8eef8" text-anchor="start" letter-spacing="0">Install</text><line x1="140" y1="2291" x2="840" y2="2291" stroke="#1c2438"/><rect x="40" y="2320" width="800" height="118" rx="12" fill="#080b13" stroke="#2c5bac"/><text x="64" y="2358" font-family="-apple-system,BlinkMacSystemFont,'Segoe UI','Noto Sans',Helvetica,Arial,sans-serif" font-size="16" font-weight="600" fill="#e8eef8" text-anchor="start" letter-spacing="0">One line, Windows or Linux. Copy it right below this picture.</text><text x="64" y="2386" font-family="-apple-system,BlinkMacSystemFont,'Segoe UI','Noto Sans',Helvetica,Arial,sans-serif" font-size="13" font-weight="400" fill="#9fb0c9" text-anchor="start" letter-spacing="0">Preflight, download, a per-file sha256 against the release manifest. No root, no elevation.</text><text x="64" y="2410" font-family="-apple-system,BlinkMacSystemFont,'Segoe UI','Noto Sans',Helvetica,Arial,sans-serif" font-size="13" font-weight="400" fill="#9fb0c9" text-anchor="start" letter-spacing="0">The default engine and its 104.7 GB container come from crow-nest; the steps are printed.</text><text x="810" y="2386" font-family="-apple-system,BlinkMacSystemFont,'Segoe UI','Noto Sans',Helvetica,Arial,sans-serif" font-size="40" font-weight="400" fill="#4ec98f" text-anchor="end" letter-spacing="0">↓</text></svg>
